:SAMPLES-PER-SECOND 24
:FULLY-SPECIFIED
:DEGREES
50
root  -2.68538 38.998 4.84892 115.497 -42.3784 -129.361
RightUpLeg  6.39064 -28.09 -8.94413
RightLeg  22.8929 11.5944 5.1274
RightFoot  31.8043 -6.97741 18.125
RightToes  -1.74623e-010 0 -2.59999e-017
Spine  -1.2577 -3.44772 -20.7657
Spine1  24.4471 -12.9391 20.0134
HEad  16.9457 -27.369 12.3162
LeftShoulder1  2.37809 -4.54266 -23.2994
LeftArm  22.7503 -21.0164 -48.0067
LeftForeArm  91.956 -80.2116 -83.6254
LeftHand  -0.176395 3.44059 9.80407
RightShoulder  3.16465 5.13024 30.7646
RightArm  -19.8206 -28.0987 16.8393
RightForeArm  132.543 63.5907 156.399
RightHand  -0.21476 -3.88254 -15.627
LeftUpLeg  5.63488 6.70584 29.0198
LeftLeg  29.7424 3.76715 2.70076
LeftFoot  -14.6792 0.419866 11.3169
LeftToes  -6.27559e-011 -2.10356e-011 8.24929e-012
51
root  -2.88719 38.9069 5.273 123.506 -44.4345 -136.304
RightUpLeg  10.3249 -30.5288 -7.77635
RightLeg  24.588 7.48961 3.52125
RightFoot  24.4047 -3.67183 11.8891
RightToes  -1.74623e-010 0 -2.59999e-017
Spine  -4.8564 -2.90872 -19.4183
Spine1  25.4975 -10.5613 16.9
HEad  14.6485 -28.4943 12.1548
LeftShoulder1  2.49115 -4.6891 -24.1975
LeftArm  24.2668 -22.8196 -49.8955
LeftForeArm  76.2802 -79.554 -68.7971
LeftHand  -0.186577 3.37519 10.1346
RightShoulder  3.16187 5.18806 30.483
RightArm  -22.7076 -19.8844 16.0026
RightForeArm  130.915 65.356 154.396
RightHand  -0.194626 -4.05893 -16.0188
LeftUpLeg  4.73201 11.1766 23.1657
LeftLeg  28.8126 4.29302 2.9209
LeftFoot  -14.0534 0.389503 12.8133
LeftToes  -6.27559e-011 -2.10356e-011 8.24929e-012
52
root  -3.13672 39.0859 5.80657 133.983 -43.8938 -145.681
RightUpLeg  13.0887 -31.4554 -8.53201
RightLeg  25.7869 3.43842 1.59362
RightFoot  15.793 -1.8689 8.23869
RightToes  -1.74623e-010 0 -2.59999e-017
Spine  -7.79393 -2.72933 -17.5104
Spine1  24.4959 -8.3893 13.5635
HEad  13.7349 -27.8322 11.3972
LeftShoulder1  2.4909 -4.677 -24.2407
LeftArm  24.138 -20.4697 -50.6727
LeftForeArm  77.9475 -79.6509 -69.6416
LeftHand  -0.135277 3.94613 9.82894
RightShoulder  2.97319 4.99334 29.0657
RightArm  -23.3596 -14.776 18.7848
RightForeArm  133.873 65.7037 154.304
RightHand  -0.123464 -4.50336 -14.5051
LeftUpLeg  4.81942 14.8063 16.9296
LeftLeg  24.7753 6.18423 3.35065
LeftFoot  -11.3872 0.0750546 12.308
LeftToes  -6.27559e-011 -2.10356e-011 8.24929e-012
53
root  -3.43438 39.5309 6.54407 144.677 -38.5557 -156.068
RightUpLeg  13.502 -29.6856 -10.0954
RightLeg  29.167 1.28789 0.554195
RightFoot  9.42368 -1.24497 7.14859
RightToes  -1.74623e-010 0 -2.59999e-017
Spine  -9.18049 -1.52863 -12.962
Spine1  21.7194 -5.38176 9.80127
HEad  12.584 -24.706 9.27134
LeftShoulder1  2.39815 -4.51528 -23.6684
LeftArm  22.3556 -14.1485 -50.7357
LeftForeArm  88.1693 -80.1573 -78.4905
LeftHand  -0.0763063 4.68304 9.91231
RightShoulder  2.78095 4.80492 27.5035
RightArm  -21.2377 -13.5056 22.5174
RightForeArm  139.264 62.9076 157.633
RightHand  -0.156251 -4.1818 -13.8014
LeftUpLeg  6.53931 13.4899 10.6468
LeftLeg  17.4724 17.1484 3.66894
LeftFoot  -5.92596 -0.566911 12.3928
LeftToes  -6.27559e-011 -2.10356e-011 8.24929e-012
54
root  -3.55826 39.918 7.49256 152.662 -29.6412 -164.609
RightUpLeg  11.873 -26.6839 -12.1567
RightLeg  34.9743 -0.305071 -0.488628
RightFoot  7.707 -0.952452 5.99155
RightToes  -1.74623e-010 0 -2.59999e-017
Spine  -7.93434 0.425353 -8.83425
Spine1  18.719 -2.88119 7.69997
HEad  10.3475 -19.3868 6.94881
LeftShoulder1  2.3736 -4.3044 -24.1894
LeftArm  19.1142 -5.18366 -49.2401
LeftForeArm  102.88 -80.3395 -93.1497
LeftHand  -0.0875012 4.56286 10.1403
RightShoulder  2.73646 4.81027 26.9269
RightArm  -16.8884 -11.2199 24.6945
RightForeArm  142.965 60.7319 159.829
RightHand  -0.186518 -3.92217 -13.8234
LeftUpLeg  6.06105 8.11926 5.08737
LeftLeg  14.2633 28.5488 3.9258
LeftFoot  0.478301 -1.15038 11.0711
LeftToes  -6.27559e-011 -2.10356e-011 8.24929e-012
55
root  -3.49479 40.1115 8.514 157.499 -21.3687 -169.544
RightUpLeg  10.5583 -26.0681 -14.7484
RightLeg  40.0211 -0.964616 -1.14011
RightFoot  6.56909 -0.826301 5.52546
RightToes  -1.74623e-010 0 -2.59999e-017
Spine  -5.84352 1.20422 -6.38665
Spine1  17.3061 -2.09909 7.13111
HEad  7.06331 -13.4307 5.69353
LeftShoulder1  2.42338 -4.21579 -25.2278
LeftArm  15.7476 2.99038 -46.808
LeftForeArm  113.918 -80.0221 -104.666
LeftHand  -0.14501 3.95527 10.7202
RightShoulder  2.87671 5.01198 27.8223
RightArm  -12.5495 -6.47281 26.4821
RightForeArm  145.054 61.835 159.14
RightHand  -0.154063 -4.14962 -13.2081
LeftUpLeg  3.21263 10.291 4.1956
LeftLeg  16.3606 16.3882 1.86043
LeftFoot  3.26045 -0.447748 3.33968
LeftToes  -6.27559e-011 -2.10356e-011 8.24929e-012
56
root  -3.51583 39.8379 9.47012 161.162 -13.1042 -172.77
RightUpLeg  8.66696 -26.114 -17.7125
RightLeg  45.1277 1.00009 0.789767
RightFoot  4.34103 -0.752294 5.674
RightToes  -1.74623e-010 0 -2.59999e-017
Spine  -4.7501 1.84364 -2.12725
Spine1  17.398 -0.613961 4.4142
HEad  3.72934 -8.03733 4.28485
LeftShoulder1  2.45473 -4.45703 -24.6481
LeftArm  13.5872 8.62818 -45.6033
LeftForeArm  115.281 -79.8665 -106.963
LeftHand  -0.144299 4.04173 11.381
RightShoulder  3.0251 5.22206 28.7368
RightArm  -9.42947 -2.7593 29.0752
RightForeArm  146.77 63.6993 157.695
RightHand  -0.129047 -4.25429 -11.7289
LeftUpLeg  0.958163 13.0136 3.69749
LeftLeg  17.1274 2.93138 -1.13081
LeftFoot  1.09203 0.250346 -2.27573
LeftToes  -6.27559e-011 -2.10356e-011 8.24929e-012
57
root  -3.60333 39.248 10.5521 164.859 -3.38089 -175.727
RightUpLeg  4.65152 -23.4452 -19.6918
RightLeg  49.5617 2.88515 3.27646
RightFoot  3.83228 -0.778905 6.0376
RightToes  -1.74623e-010 0 -2.59999e-017
Spine  -3.99153 3.35453 1.44895
Spine1  18.2487 1.3556 1.77402
HEad  -0.388255 -2.59404 0.892703
LeftShoulder1  2.48912 -4.61745 -24.4501
LeftArm  12.7466 11.6031 -44.7612
LeftForeArm  113.932 -79.8355 -106.672
LeftHand  -0.111912 4.45625 12.3105
RightShoulder  2.9813 5.20467 28.291
RightArm  -6.92359 0.489192 31.2996
RightForeArm  147.583 64.6572 156.87
RightHand  -0.103882 -4.37293 -10.001
LeftUpLeg  -2.84462 7.15644 0.358438
LeftLeg  16.3618 15.3976 1.54706
LeftFoot  -0.234365 -0.206411 2.09536
LeftToes  -6.27559e-011 -2.10356e-011 8.24929e-012
58
root  -3.57419 38.7893 11.7851 168.114 4.48018 -176.453
RightUpLeg  2.34943 -21.102 -19.852
RightLeg  50.5158 2.57596 2.99495
RightFoot  3.11212 -0.760748 6.16205
RightToes  -1.74623e-010 0 -2.59999e-017
Spine  -3.32291 3.88897 1.94344
Spine1  19.585 1.00231 4.06834
HEad  -5.9843 3.34769 -3.00561
LeftShoulder1  2.47469 -4.28007 -25.6511
LeftArm  12.7689 11.4725 -43.8751
LeftForeArm  106.335 -80.2022 -98.2386
LeftHand  -0.123575 4.44702 13.7578
RightShoulder  3.11554 5.3355 29.3309
RightArm  -4.69964 5.08722 30.7938
RightForeArm  145.201 65.8501 155.377
RightHand  -0.0606815 -4.84845 -8.99181
LeftUpLeg  -8.89393 6.8306 -0.23781
LeftLeg  17.8964 26.1888 5.38391
LeftFoot  1.10193 -1.03906 9.38965
LeftToes  -6.27559e-011 -2.10356e-011 8.24929e-012
59
root  -3.38872 38.5743 12.9996 170.074 9.52028 -176.175
RightUpLeg  4.37607 -20.2888 -20.5891
RightLeg  48.0766 1.28181 1.20186
RightFoot  1.41325 -0.652588 5.91942
RightToes  -1.74623e-010 0 -2.59999e-017
Spine  -2.03167 3.53496 1.32345
Spine1  20.1935 -0.183791 6.95205
HEad  -9.98215 8.71701 -5.17453
LeftShoulder1  2.37376 -4.02755 -25.3579
LeftArm  13.7851 9.56196 -44.4511
LeftForeArm  81.535 -79.8551 -71.8359
LeftHand  -0.193668 3.95605 14.9153
RightShoulder  3.5183 5.74442 32.1629
RightArm  -2.73084 6.75898 30.6605
RightForeArm  142.328 67.3493 153.312
RightHand  -0.0141218 -5.49252 -8.58024
LeftUpLeg  -13.5686 15.3822 0.804444
LeftLeg  19.34 20.9354 5.23589
LeftFoot  1.23606 -1.05618 9.49221
LeftToes  -6.27559e-011 -2.10356e-011 8.24929e-012
60
root  -3.18802 38.4669 14.2585 171.107 14.0949 -176.778
RightUpLeg  7.5242 -18.9616 -22.841
RightLeg  44.6662 0.793234 0.532465
RightFoot  1.14915 -0.732456 6.75148
RightToes  -1.74623e-010 0 -2.59999e-017
Spine  -0.297296 3.22585 1.75321
Spine1  19.9503 -0.114664 5.76109
HEad  -10.8931 13.1394 -6.57423
LeftShoulder1  2.31202 -4.15023 -23.985
LeftArm  15.7639 7.80099 -45.276
LeftForeArm  59.0363 -77.3263 -48.9713
LeftHand  -0.33581 3.11761 16.7819
RightShoulder  3.66133 5.91044 33.0133
RightArm  -0.3488 3.22936 34.8151
RightForeArm  143.362 67.6071 153.113
RightHand  0.0255525 -6.12678 -7.96048
LeftUpLeg  -15.7063 16.5024 1.90477
LeftLeg  19.0131 22.5778 4.85108
LeftFoot  0.0480909 -0.717912 7.20195
LeftToes  -6.27559e-011 -2.10356e-011 8.24929e-012
61
root  -2.9889 38.4317 15.6174 172.746 18.8813 -177.107
RightUpLeg  9.03139 -16.7997 -23.9095
RightLeg  42.0123 1.73021 1.38286
RightFoot  1.42627 -0.827104 7.46513
RightToes  -1.74623e-010 0 -2.59999e-017
Spine  0.132432 2.91073 2.83205
Spine1  20.0438 0.178305 3.84462
HEad  -11.4791 17.3023 -8.58634
LeftShoulder1  2.29824 -4.21067 -23.5478
LeftArm  17.2353 6.52436 -45.3905
LeftForeArm  49.8795 -74.9124 -38.807
LeftHand  -0.494792 2.45481 19.4016
RightShoulder  3.59078 5.89097 32.341
RightArm  2.76726 -1.07584 39.194
RightForeArm  145.398 65.9828 155.244
RightHand  0.0389414 -6.43188 -7.32152
LeftUpLeg  -17.4589 11.525 4.04908
LeftLeg  17.2937 31.6244 5.35071
LeftFoot  -0.690856 -0.738551 7.95667
LeftToes  -6.27559e-011 -2.10356e-011 8.24929e-012
62
root  -2.69131 38.3159 17.1254 174.597 24.1544 -177.044
RightUpLeg  8.99928 -13.2688 -23.0989
RightLeg  40.9027 3.67684 3.13233
RightFoot  2.04642 -0.693899 6.04505
RightToes  -1.74623e-010 0 -2.59999e-017
Spine  0.0299038 2.93473 3.08145
Spine1  20.4727 0.479175 3.16698
HEad  -12.9119 21.4924 -10.5812
LeftShoulder1  2.23972 -4.05455 -23.3794
LeftArm  16.975 5.89423 -46.0315
LeftForeArm  45.6364 -72.7236 -32.5831
LeftHand  -0.570748 2.218 20.753
RightShoulder  3.62398 5.94995 32.4533
RightArm  6.22628 -2.83968 39.472
RightForeArm  144.77 63.5555 157.615
RightHand  0.0287987 -6.4152 -6.39792
LeftUpLeg  -19.6523 10.9007 6.63581
LeftLeg  15.8694 35.1515 5.21328
LeftFoot  -0.715446 -0.730095 7.88323
LeftToes  -6.27559e-011 -2.10356e-011 8.24929e-012
63
root  -2.35436 37.9642 18.9021 175.914 29.8666 -177.493
RightUpLeg  7.78366 -9.45784 -22.3559
RightLeg  41.2534 6.00819 5.35052
RightFoot  3.57168 -0.899713 7.05245
RightToes  -1.74623e-010 0 -2.59999e-017
Spine  0.860858 3.18888 2.26845
Spine1  19.9771 1.05686 2.17414
HEad  -14.1376 25.7702 -12.3597
LeftShoulder1  2.21933 -3.98979 -23.3626
LeftArm  15.7309 6.32126 -46.4168
LeftForeArm  41.3705 -70.5807 -28.3708
LeftHand  -0.620237 2.15882 22.1288
RightShoulder  3.56675 5.90798 32.0143
RightArm  9.16569 -2.63004 38.8801
RightForeArm  144.942 61.9166 159.062
RightHand  0.0116619 -6.43857 -4.61636
LeftUpLeg  -21.4732 10.6555 9.48197
LeftLeg  14.7859 39.2743 5.53883
LeftFoot  -0.54213 -0.61122 6.49387
LeftToes  -6.27559e-011 -2.10356e-011 8.24929e-012
